<svg viewBox="0 0 341 341" fill="none" xmlns="http://www.w3.org/2000/svg">
<path d="M301.623 279.252C319.125 258.211 331.298 233.268 337.112 206.532C342.926 179.796 342.21 152.054 335.024 125.653C327.839 99.2525 314.395 74.9692 295.83 54.8578C277.265 34.7464 254.125 19.3985 228.368 10.1125C202.612 0.826488 174.995 -2.12449 147.856 1.5092C120.716 5.1429 94.8514 15.2544 72.4499 30.9883C50.0485 46.7222 31.7692 67.6156 19.1583 91.901C6.54746 116.187 -0.0239187 143.15 6.5417e-05 170.509C0.00926893 210.283 14.0367 248.782 39.6209 279.252L39.3772 279.459C40.2303 280.482 41.2052 281.359 42.0827 282.37C43.1796 283.624 44.3617 284.805 45.4952 286.023C48.9076 289.725 52.4175 293.281 56.0981 296.617C57.2193 297.64 58.3771 298.59 59.5105 299.564C63.4105 302.925 67.4201 306.116 71.5759 309.087C72.1122 309.452 72.5997 309.927 73.1359 310.305V310.158C101.68 330.229 135.731 341 170.634 341C205.537 341 239.588 330.229 268.132 310.158V310.305C268.669 309.927 269.144 309.452 269.692 309.087C273.836 306.103 277.858 302.925 281.758 299.564C282.891 298.59 284.049 297.628 285.17 296.617C288.851 293.268 292.361 289.725 295.773 286.023C296.906 284.805 298.076 283.624 299.186 282.37C300.051 281.359 301.038 280.482 301.891 279.447L301.623 279.252ZM170.622 73.0911C181.469 73.0911 192.072 76.305 201.091 82.3262C210.11 88.3475 217.139 96.9057 221.29 106.919C225.441 116.932 226.527 127.95 224.411 138.579C222.295 149.209 217.072 158.973 209.402 166.637C201.732 174.3 191.96 179.519 181.321 181.634C170.683 183.748 159.656 182.663 149.635 178.515C139.613 174.368 131.048 167.344 125.022 158.333C118.996 149.321 115.779 138.727 115.779 127.889C115.779 113.356 121.557 99.4176 131.842 89.141C142.127 78.8645 156.077 73.0911 170.622 73.0911ZM73.209 279.252C73.4204 263.263 79.9236 248 91.3115 236.765C102.699 225.53 118.056 219.227 134.06 219.218H207.184C223.187 219.227 238.544 225.53 249.932 236.765C261.32 248 267.823 263.263 268.035 279.252C241.306 303.319 206.602 316.638 170.622 316.638C134.642 316.638 99.9377 303.319 73.209 279.252Z" fill="#890D0D"/>
</svg>
