<svg width="357" height="357" viewBox="0 0 357 357" fill="none" xmlns="http://www.w3.org/2000/svg">
<path d="M178.5 0C79.9171 0 0 79.9171 0 178.5C0 277.083 79.9171 357 178.5 357C277.083 357 357 277.083 357 178.5C357 79.9171 277.083 0 178.5 0ZM177.215 81.7108C201.32 81.8256 223.353 97.1974 232.713 118.644C235.914 126.114 237.615 133.788 237.615 142.112V163.335H266.857V275.289H90.1434V163.334H117.032C116.788 148.339 116.48 131.184 121.738 118.644C131.963 96.0607 153.109 81.5959 177.215 81.7108ZM175.907 117.358C162.555 117.639 153.749 127.793 152.461 142.111V163.334H202.185V141.894C201.572 128.315 191.295 117.732 177.214 117.358C176.778 117.348 176.343 117.348 175.907 117.358Z" fill="#272727"/>
</svg>
